<svg xmlns="http://www.w3.org/2000/svg" viewBox="0 0 42 36.5"><g id="레이어_2" data-name="레이어 2"><g id="레이어_1-2" data-name="레이어 1"><path d="M40,0H2A2,2,0,0,0,0,2V27a2,2,0,0,0,2,2H16.92l-.75,4.5H12.5a1.5,1.5,0,0,0,0,3h17a1.5,1.5,0,0,0,0-3H25.83L25.08,29H40a2,2,0,0,0,2-2V2A2,2,0,0,0,40,0ZM21,27.5A1.5,1.5,0,1,1,22.5,26,1.5,1.5,0,0,1,21,27.5ZM38,22H4V4H38Z" fill="#fff"/><path d="M26.58,6.12l-9,2.94a1,1,0,0,0-.2,1.81l2.21,1.31L14.4,17.32a1,1,0,0,0,0,1.42l.77.76a1,1,0,0,0,1.41,0l5.19-5.18,1.28,2.22a1,1,0,0,0,1.82-.19l3-9A1,1,0,0,0,26.58,6.12Z" fill="#fff" opacity="0.7"/></g></g></svg>