<svg xmlns="http://www.w3.org/2000/svg" viewBox="0 0 42.15 26.47"><g id="레이어_2" data-name="레이어 2"><g id="레이어_1-2" data-name="레이어 1"><path d="M42,9.73,39.13,6.87a.5.5,0,0,0-.71,0l-1.5,1.5a.5.5,0,0,0,0,.71L39.78,12a.51.51,0,0,0,.71,0L42,10.44A.51.51,0,0,0,42,9.73ZM17.55,23.43h-15a1.5,1.5,0,0,0,0,3h15a1.5,1.5,0,1,0,0-3Z" fill="#fff" opacity="0.7"/><path d="M38.05,13.69l-2.87-2.87a.5.5,0,0,0-.71,0l-8,8a.5.5,0,0,0,0,.71l2.86,2.87a.51.51,0,0,0,.71,0l8-8A.5.5,0,0,0,38.05,13.69ZM36,2a2,2,0,0,0-2-2H2A2,2,0,0,0,0,2V19a2,2,0,0,0,2,2H20.81C20.91,20.87,36,5.75,36,5.75ZM7.62,8.79l2.5,1.29A3.51,3.51,0,0,1,12,13.8a3.42,3.42,0,0,1-2.17,2.68V17a1.25,1.25,0,0,1-2.5,0v-.44a4.28,4.28,0,0,1-2.77-2.41,1.25,1.25,0,0,1,2.3-1,1.74,1.74,0,0,0,1.77,1.06l.13,0a.91.91,0,0,0,.77-.79A1,1,0,0,0,9,12.3L6.47,11A3.51,3.51,0,0,1,4.63,7.23,3.4,3.4,0,0,1,7.32,4.47V4a1.25,1.25,0,0,1,2.5,0v.73A4.26,4.26,0,0,1,12,6.94a1.25,1.25,0,0,1-.64,1.65,1.26,1.26,0,0,1-1.65-.65A1.74,1.74,0,0,0,8,6.89a.93.93,0,0,0-.88.8A1,1,0,0,0,7.62,8.79Zm14.93,6h-6a1.25,1.25,0,0,1,0-2.5h6a1.25,1.25,0,0,1,0,2.5Zm4-5h-10a1.25,1.25,0,0,1,0-2.5h10a1.25,1.25,0,0,1,0,2.5ZM24.62,21.37a.49.49,0,0,0-.7,0l-1,1a.52.52,0,0,0-.14.31l-.25,3.24a.5.5,0,0,0,.56.53l3.11-.35a.57.57,0,0,0,.3-.15l1-1a.5.5,0,0,0,0-.71Z" fill="#fff"/></g></g></svg>