<svg xmlns="http://www.w3.org/2000/svg" viewBox="0 0 30.49 34"><g id="레이어_2" data-name="레이어 2"><g id="레이어_1-2" data-name="레이어 1"><path d="M19.14.1H10.36a.5.5,0,0,0-.5.5V9.73a.5.5,0,0,0,.74.44L14.6,8a.5.5,0,0,1,.49,0l3.8,2.2a.5.5,0,0,0,.75-.44V.6A.5.5,0,0,0,19.14.1Zm10.1,1.27A1.25,1.25,0,0,0,28,2.62V26.14a1.25,1.25,0,0,0,2.5,0V2.62A1.25,1.25,0,0,0,29.24,1.37Z" fill="#fff" opacity="0.7"/><path d="M28.37,30.07H5.24a1.31,1.31,0,1,1,0-2.62H24.52a1,1,0,0,0,1-1V1a1,1,0,0,0-1-1H22.13s0,.06,0,.1V10.58a2.47,2.47,0,0,1-1.25,2.16,2.42,2.42,0,0,1-1.25.34,2.54,2.54,0,0,1-1.25-.33l-3.57-2.07-3.75,2.09a2.48,2.48,0,0,1-1.21.31,2.51,2.51,0,0,1-2.5-2.5V.1s0-.07,0-.1H4A4,4,0,0,0,0,4V30a4,4,0,0,0,4,4H28.37a2,2,0,1,0,0-3.93ZM8.86,19.1h13a1,1,0,0,1,0,2h-13a1,1,0,1,1,0-2Z" fill="#fff"/></g></g></svg>