<svg xmlns="http://www.w3.org/2000/svg" viewBox="0 0 25.99 37.5"><g id="레이어_2" data-name="레이어 2"><g id="레이어_1-2" data-name="레이어 1"><g opacity="0.7"><rect x="0.99" y="18.5" width="16" height="2" rx="0.5" fill="#fff"/></g><path d="M9,32.5A1.5,1.5,0,0,0,7.49,34v2a1.5,1.5,0,0,0,3,0V34A1.5,1.5,0,0,0,9,32.5Zm-6-2A1.5,1.5,0,0,0,1.49,32v2a1.5,1.5,0,0,0,3,0V32A1.5,1.5,0,0,0,3,30.5Zm0-8A1.5,1.5,0,0,0,1.49,24v2a1.5,1.5,0,0,0,3,0V24A1.5,1.5,0,0,0,3,22.5Zm6,2A1.5,1.5,0,0,0,7.49,26v2a1.5,1.5,0,0,0,3,0V26A1.5,1.5,0,0,0,9,24.5Zm6,6a1.5,1.5,0,0,0-1.5,1.5v2a1.5,1.5,0,1,0,3,0V32A1.5,1.5,0,0,0,15,30.5ZM15.84,0A9.6,9.6,0,0,0,7.35,7.15,9,9,0,0,0,0,15.48.5.5,0,0,0,.51,16h17a.5.5,0,0,0,.5-.52,9,9,0,0,0-6.54-8.14A5.5,5.5,0,0,1,17,4,5.67,5.67,0,0,1,22,9.75V36.5a.5.5,0,0,0,.5.5h3a.5.5,0,0,0,.5-.5V9.5A9.51,9.51,0,0,0,15.84,0ZM15,22.5a1.5,1.5,0,0,0-1.5,1.5v2a1.5,1.5,0,0,0,3,0V24A1.5,1.5,0,0,0,15,22.5Z" fill="#fff"/></g></g></svg>