<svg xmlns="http://www.w3.org/2000/svg" viewBox="0 0 39.76 40"><g id="레이어_2" data-name="레이어 2"><g id="레이어_1-2" data-name="레이어 1"><path d="M37.52,14.74a2.5,2.5,0,0,0-2.76,2.48l0,6a5.21,5.21,0,0,1-1.53,3.51l-2.47,2.46A1.28,1.28,0,0,1,29,27.37l2.54-2.54a2.4,2.4,0,0,0,.25-3.18,2.3,2.3,0,0,0-3.42-.18l-5,5a6,6,0,0,0-1.76,4.24v3a.5.5,0,0,0,.5.5H32.35a.55.55,0,0,0,.38-.18l5.62-6.65a6,6,0,0,0,1.41-3.87V17.37A2.6,2.6,0,0,0,37.52,14.74ZM11.43,21.47A2.31,2.31,0,0,0,8,21.65a2.4,2.4,0,0,0,.25,3.18l2.54,2.54A1.28,1.28,0,0,1,9,29.18L6.51,26.72A5.21,5.21,0,0,1,5,23.21l0-6a2.5,2.5,0,0,0-2.76-2.48A2.6,2.6,0,0,0,0,17.37v6.16A6,6,0,0,0,1.42,27.4L7,34.05a.57.57,0,0,0,.38.18H17.68a.5.5,0,0,0,.5-.5v-3a6,6,0,0,0-1.75-4.24Z" fill="#fff"/><path d="M32.08,37H21.81a.5.5,0,0,0-.5.5v2a.5.5,0,0,0,.5.5H32.08a.5.5,0,0,0,.5-.5v-2A.5.5,0,0,0,32.08,37ZM19.88,9.43a4.72,4.72,0,1,0-4.71-4.72A4.72,4.72,0,0,0,19.88,9.43ZM13,18.5H26.72a1.12,1.12,0,0,0,1.08-1.17V16.22a3.71,3.71,0,0,0-3.56-3.84H15.52A3.71,3.71,0,0,0,12,16.22v1.11A1.12,1.12,0,0,0,13,18.5ZM18,37H7.68a.5.5,0,0,0-.5.5v2a.5.5,0,0,0,.5.5H18a.5.5,0,0,0,.5-.5v-2A.5.5,0,0,0,18,37Z" fill="#fff" opacity="0.7"/></g></g></svg>