<svg xmlns="http://www.w3.org/2000/svg" viewBox="0 0 42.01 35.5"><g id="레이어_2" data-name="레이어 2"><g id="레이어_1-2" data-name="레이어 1"><path d="M32,0H10a1.5,1.5,0,0,0,0,3h.5V35a.5.5,0,0,0,.5.5H31a.5.5,0,0,0,.5-.5V3H32a1.5,1.5,0,0,0,0-3ZM19.51,31a.5.5,0,0,1-.5.5H14a.5.5,0,0,1-.5-.5V28a.5.5,0,0,1,.5-.5h5a.5.5,0,0,1,.5.5Zm0-8a.5.5,0,0,1-.5.5H14a.5.5,0,0,1-.5-.5V20a.5.5,0,0,1,.5-.5h5a.5.5,0,0,1,.5.5ZM15,9.5a6,6,0,1,1,6,6A6,6,0,0,1,15,9.5ZM28.51,31a.5.5,0,0,1-.5.5H23a.5.5,0,0,1-.5-.5V28a.5.5,0,0,1,.5-.5h5a.5.5,0,0,1,.5.5Zm0-8a.5.5,0,0,1-.5.5H23a.5.5,0,0,1-.5-.5V20a.5.5,0,0,1,.5-.5h5a.5.5,0,0,1,.5.5Z" fill="#fff"/><path d="M0,7.5A1.5,1.5,0,0,0,1.5,9H8V6H1.5A1.5,1.5,0,0,0,0,7.5Zm24.24.65H22.35V6.27A.27.27,0,0,0,22.09,6H19.93a.27.27,0,0,0-.27.27V8.15H17.78a.27.27,0,0,0-.27.27v2.16a.27.27,0,0,0,.27.27h1.88v1.88a.27.27,0,0,0,.27.27h2.16a.27.27,0,0,0,.26-.27V10.85h1.89a.27.27,0,0,0,.27-.27V8.42A.27.27,0,0,0,24.24,8.15ZM7.5,11.5h-6A.5.5,0,0,0,1,12V35a.5.5,0,0,0,.5.5h6A.5.5,0,0,0,8,35V27.5H4a.5.5,0,0,1-.5-.5V24a.5.5,0,0,1,.5-.5H8v-4H4a.5.5,0,0,1-.5-.5V16a.5.5,0,0,1,.5-.5H8V12A.5.5,0,0,0,7.5,11.5Zm33-5.5H34V9h6.5a1.5,1.5,0,0,0,0-3Zm0,5.5h-6a.5.5,0,0,0-.5.5v3.5h4a.5.5,0,0,1,.5.5v3a.5.5,0,0,1-.5.5H34v4h4a.5.5,0,0,1,.5.5v3a.5.5,0,0,1-.5.5H34V35a.5.5,0,0,0,.5.5h6A.5.5,0,0,0,41,35V12A.5.5,0,0,0,40.51,11.5Z" fill="#fff" opacity="0.7"/></g></g></svg>