<svg xmlns="http://www.w3.org/2000/svg" viewBox="0 0 35.26 35.35"><g id="레이어_2" data-name="레이어 2"><g id="레이어_1-2" data-name="레이어 1"><path d="M34.72,20.65a2.5,2.5,0,0,0-3.51-.42l-7.08,5.54a2,2,0,0,1-1.23.43H17.83A1.24,1.24,0,0,1,16.58,25a1.26,1.26,0,0,1,1.24-1.26h4.25a2.5,2.5,0,0,0,0-5H11.68A6,6,0,0,0,8,20L4.51,22.72a.5.5,0,0,0-.09.7L11.17,32a.48.48,0,0,0,.39.19l8.15.07,2.26,0a6,6,0,0,0,3.77-1.29l8.57-6.78A2.5,2.5,0,0,0,34.72,20.65Z" fill="#fff"/><path d="M2.46,25a.49.49,0,0,0-.7-.08L.19,26.13a.5.5,0,0,0-.08.7l6.58,8.33a.5.5,0,0,0,.7.08L9,34A.49.49,0,0,0,9,33.3ZM26.25,0c-2.68,0-4.57,2.62-4.57,2.62S20.74,0,17.11,0c-2.33,0-4.23,2.22-4.23,4.94,0,4.35,4.56,7.59,7.29,9.15a3.35,3.35,0,0,0,3.18.08c2.71-1.39,7.13-4.39,7.13-9.23C30.48,2.22,28.59,0,26.25,0Z" fill="#fff" opacity="0.7"/></g></g></svg>