<svg xmlns="http://www.w3.org/2000/svg" viewBox="0 0 34 42"><g id="레이어_2" data-name="레이어 2"><g id="레이어_1-2" data-name="레이어 1"><path d="M19,6H15a2,2,0,0,0,0,4h4a2,2,0,0,0,0-4Z" fill="#fff" opacity="0.7"/><path d="M34,17.78,32.4,3.56a4,4,0,0,0-4-3.56H5.58a4,4,0,0,0-4,3.56L0,17.78c0,.15,0,.29,0,.44V40a2,2,0,0,0,2,2H4a2,2,0,0,0,2-2V36.5a.5.5,0,0,1,.5-.5h21a.5.5,0,0,1,.5.5V40a2,2,0,0,0,2,2h2a2,2,0,0,0,2-2V18.22C34,18.07,34,17.93,34,17.78ZM5.87,5.87A2,2,0,0,1,7.87,4H26.13a2,2,0,0,1,2,1.87l.78,11.6a.5.5,0,0,1-.5.53H5.59a.5.5,0,0,1-.5-.53ZM9,29a1,1,0,0,1-1,1H5a1,1,0,0,1-1-1V26a1,1,0,0,1,1-1H8a1,1,0,0,1,1,1Zm11,0H14a1.5,1.5,0,0,1,0-3h6a1.5,1.5,0,0,1,0,3Zm11,0a1,1,0,0,1-1,1H26a1,1,0,0,1-1-1V26a1,1,0,0,1,1-1h4a1,1,0,0,1,1,1Z" fill="#fff"/></g></g></svg>