<svg xmlns="http://www.w3.org/2000/svg" viewBox="0 0 31.26 42.69"><g id="레이어_2" data-name="레이어 2"><g id="레이어_1-2" data-name="레이어 1"><path d="M13.73,37.6a.49.49,0,0,0-.7,0l-1,1a.5.5,0,0,0-.14.31l-.24,3.23a.49.49,0,0,0,.55.54l3.11-.36a.49.49,0,0,0,.3-.14l1-1a.5.5,0,0,0,0-.71Zm13.43-7.69L24.29,27a.51.51,0,0,0-.71,0l-8,8a.48.48,0,0,0,0,.7l2.86,2.87a.5.5,0,0,0,.71,0l8-8A.51.51,0,0,0,27.16,29.91ZM25,9.48a2,2,0,0,0-2-2H21.91a.51.51,0,0,0-.5.5v3a.5.5,0,0,1-.5.5H4a.5.5,0,0,1-.5-.5V8a.5.5,0,0,0-.5-.5H2a2,2,0,0,0-2,2v26a2,2,0,0,0,2,2H9.77a2.93,2.93,0,0,1,.47-.64l1.37-1.37L25,22.09ZM13.5,23.86h-7a1.25,1.25,0,0,1,0-2.5h7a1.25,1.25,0,0,1,0,2.5Zm5-5H6.5a1.25,1.25,0,0,1,0-2.5h12a1.25,1.25,0,0,1,0,2.5Z" fill="#fff"/><path d="M16.27,4.21A1.83,1.83,0,0,1,15,2.48,2.45,2.45,0,0,0,12.55,0h-.1A2.39,2.39,0,0,0,10,2.38,1.86,1.86,0,0,1,8.74,4.2C7.15,4.74,6,5.23,6,7V8.5a.5.5,0,0,0,.5.5h12a.5.5,0,0,0,.5-.5V7C19,5.23,17.85,4.74,16.27,4.21ZM31.11,26l-2.87-2.87a.5.5,0,0,0-.71,0L26,24.6a.48.48,0,0,0,0,.7l2.87,2.87a.48.48,0,0,0,.7,0l1.51-1.5A.51.51,0,0,0,31.11,26Z" fill="#fff" opacity="0.7"/></g></g></svg>