<svg xmlns="http://www.w3.org/2000/svg" viewBox="0 0 35.26 37.32"><g id="레이어_2" data-name="레이어 2"><g id="레이어_1-2" data-name="레이어 1"><path d="M34.72,22.62a2.51,2.51,0,0,0-3.51-.42l-7.08,5.55a2,2,0,0,1-1.23.42H17.83a1.25,1.25,0,0,1,0-2.5h4.25a2.5,2.5,0,0,0,0-5H11.68A6.07,6.07,0,0,0,8,22L4.51,24.69a.51.51,0,0,0-.09.71l6.75,8.53a.5.5,0,0,0,.39.18l8.15.07,2.26,0a6,6,0,0,0,3.77-1.29l8.57-6.77A2.51,2.51,0,0,0,34.72,22.62Z" fill="#fff"/><path d="M2.46,26.94a.5.5,0,0,0-.7-.08L.19,28.1a.51.51,0,0,0-.08.71l6.58,8.32a.49.49,0,0,0,.7.08L9,36a.49.49,0,0,0,.08-.7ZM21.68,0a8.81,8.81,0,1,0,8.81,8.81A8.8,8.8,0,0,0,21.68,0Zm-.49,7.11,2,1a3,3,0,0,1,1.64,3.26,3,3,0,0,1-1.75,2.3V14a1.25,1.25,0,1,1-2.5,0V13.8a3.69,3.69,0,0,1-2.23-2,1.25,1.25,0,1,1,2.29-1,1.21,1.21,0,0,0,1.21.72A.53.53,0,0,0,22.4,11a.62.62,0,0,0-.32-.65l-2-1A3.11,3.11,0,0,1,18.42,6a3,3,0,0,1,2.19-2.39V3.42a1.25,1.25,0,0,1,2.5,0v.46a3.67,3.67,0,0,1,1.78,1.84,1.25,1.25,0,1,1-2.29,1A1.21,1.21,0,0,0,21.39,6a.54.54,0,0,0-.51.46A.59.59,0,0,0,21.19,7.11Z" fill="#fff"/></g></g></svg>